<svg width="19" height="19" viewBox="0 0 19 19" fill="none" xmlns="http://www.w3.org/2000/svg">
<g clip-path="url(#clip0_0_205)">
<path d="M10.7826 18.9629H7.73393C7.22471 18.9629 6.81048 18.5495 6.81048 18.0412V11.1783H5.03185C4.52263 11.1783 4.1084 10.7648 4.1084 10.2567V7.31591C4.1084 6.80769 4.52263 6.39426 5.03185 6.39426H6.81048V4.92163C6.81048 3.46146 7.26988 2.21917 8.13887 1.32927C9.01177 0.43531 10.2317 -0.0371094 11.6667 -0.0371094L13.9917 -0.0333405C14.5 -0.0324707 14.9135 0.380951 14.9135 0.888306V3.61874C14.9135 4.12697 14.4995 4.54039 13.9904 4.54039L12.425 4.54097C11.9476 4.54097 11.826 4.6365 11.8 4.66578C11.7571 4.71434 11.7062 4.85162 11.7062 5.23068V6.39412H13.8727C14.0358 6.39412 14.1939 6.43427 14.3297 6.50994C14.6226 6.67331 14.8048 6.98222 14.8048 7.31606L14.8036 10.2568C14.8036 10.7648 14.3894 11.1782 13.8801 11.1782H11.7062V18.0412C11.7062 18.5495 11.2918 18.9629 10.7826 18.9629ZM7.92652 17.849H10.59V10.6797C10.59 10.3403 10.8667 10.0643 11.2065 10.0643H13.6876L13.6886 7.50813H11.2064C10.8665 7.50813 10.59 7.23213 10.59 6.89278V5.23068C10.59 4.79552 10.6343 4.30063 10.9634 3.92867C11.3611 3.479 11.9878 3.42711 12.4247 3.42711L13.7975 3.42653V1.08023L11.6658 1.07675C9.35963 1.07675 7.92652 2.55011 7.92652 4.92163V6.89278C7.92652 7.23198 7.64998 7.50813 7.31012 7.50813H5.22444V10.0643H7.31012C7.64998 10.0643 7.92652 10.3403 7.92652 10.6797V17.849ZM13.9895 1.08052H13.9897H13.9895Z" fill="white"/>
</g>
<defs>
<clipPath id="clip0_0_205">
<rect width="19" height="19" fill="white"/>
</clipPath>
</defs>
</svg>
