<svg width="17" height="17" viewBox="0 0 17 17" fill="none" xmlns="http://www.w3.org/2000/svg">
<path d="M15.0955 3.14645C15.0649 3.10793 15.033 3.06942 14.9998 3.0309C14.2171 2.09719 13.2421 1.34332 12.1415 0.820723C11.0408 0.298123 9.84042 0.0190884 8.62214 0.00265635C8.58096 0.00132818 8.54112 0 8.49995 0C8.45878 0 8.41893 0.00132818 8.37776 0.00265635C7.1549 0.0192484 5.95012 0.300407 4.84622 0.826811C3.74232 1.35321 2.76547 2.11238 1.9828 3.05215C1.9605 3.07611 1.93965 3.1014 1.92038 3.12786C1.91939 3.12986 1.91804 3.13166 1.91639 3.13317C0.677116 4.6473 0 6.54367 0 8.50033C0 10.457 0.677116 12.3534 1.91639 13.8675C1.91804 13.869 1.91939 13.8708 1.92038 13.8728C1.93966 13.8993 1.9605 13.9245 1.9828 13.9485L1.98413 13.9498C2.76671 14.8893 3.74338 15.6482 4.84705 16.1743C5.95071 16.7005 7.1552 16.9815 8.37776 16.998C8.45931 17.0007 8.54059 17.0007 8.62214 16.998C9.84042 16.9816 11.0408 16.7025 12.1415 16.1799C13.2421 15.6573 14.2171 14.9035 14.9998 13.9698C15.033 13.9312 15.0649 13.8927 15.0955 13.8542C16.3273 12.3419 17 10.4509 17 8.50033C17 6.54973 16.3273 4.6588 15.0955 3.14645ZM13.2135 8.2679C13.2003 7.00837 13.0185 5.75628 12.6729 4.54502C13.4295 4.30623 14.1522 3.97099 14.8232 3.54756C15.8848 4.89665 16.4837 6.55182 16.5312 8.2679H13.2135ZM8.73237 0.476815C10.1521 0.622915 11.3873 2.08922 12.1005 4.23556C11.0026 4.53689 9.87076 4.69668 8.73237 4.71104V0.476815ZM8.26753 4.71104C7.12914 4.69668 5.99726 4.53689 4.89938 4.23556C5.61259 2.08922 6.84775 0.622915 8.26753 0.476815V4.71104ZM8.26753 5.17591V8.2679H4.25125C4.26393 7.05443 4.43584 5.84788 4.76258 4.67917C5.9048 4.99417 7.08276 5.16111 8.26753 5.17591ZM8.26753 8.73276V11.8248C7.08276 11.8396 5.9048 12.0065 4.76258 12.3215C4.43584 11.1528 4.26393 9.94623 4.25125 8.73276H8.26753ZM8.26753 12.2896V16.5238C6.84775 16.3777 5.61259 14.9114 4.89938 12.7651C5.99726 12.4638 7.12914 12.304 8.26753 12.2896ZM8.73237 12.2896C9.87076 12.304 11.0026 12.4638 12.1005 12.7651C11.3873 14.9114 10.1521 16.3777 8.73237 16.5238V12.2896ZM8.73237 11.8248V8.73276H12.7486C12.736 9.94667 12.5641 11.1537 12.2373 12.3228C11.0954 12.0062 9.91729 11.8388 8.73237 11.8248ZM8.73237 8.2679V5.17591C9.91729 5.16191 11.0954 4.99449 12.2373 4.67784C12.5641 5.84701 12.736 7.054 12.7486 8.2679H8.73237ZM14.523 3.1863C13.9007 3.57402 13.2324 3.88234 12.5335 4.10407C12.0235 2.58729 11.2572 1.3813 10.3447 0.678698C11.9631 1.06271 13.4228 1.93874 14.523 3.1863ZM6.65517 0.678698C5.74275 1.3813 4.97641 2.58729 4.46641 4.10407C3.76803 3.88165 3.0998 3.57384 2.47687 3.18762C3.57639 1.93899 5.0363 1.06236 6.65517 0.678698ZM2.17671 3.54623C2.84755 3.97054 3.57024 4.30668 4.32696 4.54635C3.98127 5.75713 3.79947 7.0088 3.78641 8.2679H0.46873C0.516182 6.55141 1.11506 4.89583 2.17671 3.54623ZM3.78641 8.73276C3.79947 9.99186 3.98127 11.2435 4.32696 12.4543V12.4556C3.57008 12.6943 2.84732 13.03 2.17671 13.4544C1.11506 12.1048 0.516182 10.4492 0.46873 8.73276H3.78641ZM2.47687 13.813C3.0998 13.4268 3.76803 13.119 4.46641 12.8966C4.97641 14.4134 5.74275 15.6194 6.65517 16.322C5.0363 15.9383 3.57639 15.0617 2.47687 13.813ZM10.3447 16.322C11.2572 15.6194 12.0235 14.4134 12.5335 12.8966C13.2324 13.1183 13.9007 13.4266 14.523 13.8144C13.4228 15.0619 11.9631 15.938 10.3447 16.322ZM14.8232 13.4531C14.1522 13.0297 13.4295 12.6944 12.6729 12.4556C13.0185 11.2444 13.2003 9.99229 13.2135 8.73276H16.5312C16.4837 10.4488 15.8848 12.104 14.8232 13.4531Z" fill="#959AB2"/>
</svg>
