<svg width="39" height="37" viewBox="0 0 39 37" fill="none" xmlns="http://www.w3.org/2000/svg">
<path d="M25.3896 16.2137H12.8129C12.3341 16.2132 11.875 16.0223 11.5364 15.6831C11.1979 15.3439 11.0074 14.884 11.0068 14.4043V1.80396C11.0081 1.32497 11.199 0.866056 11.5376 0.527874C11.8761 0.189692 12.3348 -0.00014644 12.8129 8.47571e-08H25.3896C25.8671 8.47571e-08 26.3251 0.190059 26.6628 0.528367C27.0004 0.866674 27.1901 1.32552 27.1901 1.80396V3.47672C27.1901 3.6217 27.1327 3.76074 27.0303 3.86326C26.928 3.96578 26.7892 4.02337 26.6445 4.02337C26.4998 4.02337 26.361 3.96578 26.2587 3.86326C26.1564 3.76074 26.0989 3.6217 26.0989 3.47672V1.80396C26.0989 1.61548 26.0242 1.43472 25.8911 1.30145C25.7581 1.16818 25.5777 1.09331 25.3896 1.09331H12.8129C12.6241 1.09287 12.4429 1.16743 12.3089 1.30064C12.1749 1.43385 12.0991 1.61485 12.0981 1.80396V14.4043C12.0984 14.5942 12.1738 14.7761 12.3078 14.9104C12.4417 15.0446 12.6234 15.1201 12.8129 15.1204H25.3896C25.5783 15.1194 25.759 15.0435 25.8919 14.9092C26.0249 14.775 26.0993 14.5934 26.0989 14.4043V12.737C26.0989 12.592 26.1564 12.453 26.2587 12.3505C26.361 12.248 26.4998 12.1904 26.6445 12.1904C26.7892 12.1904 26.928 12.248 27.0303 12.3505C27.1327 12.453 27.1901 12.592 27.1901 12.737V14.4043C27.1903 14.8833 27.0008 15.3428 26.6633 15.682C26.3257 16.0212 25.8677 16.2124 25.3896 16.2137Z" fill="#1D37B5"/>
<path d="M26.6443 9.45705C26.4995 9.45705 26.3608 9.39945 26.2584 9.29692C26.1561 9.19439 26.0986 9.05534 26.0986 8.91034V7.303C26.0986 7.158 26.1561 7.01894 26.2584 6.91641C26.3608 6.81389 26.4995 6.75629 26.6443 6.75629C26.789 6.75629 26.9277 6.81389 27.0301 6.91641C27.1324 7.01894 27.1899 7.158 27.1899 7.303V8.91034C27.1899 9.05534 27.1324 9.19439 27.0301 9.29692C26.9277 9.39945 26.789 9.45705 26.6443 9.45705Z" fill="#1D37B5"/>
<path d="M19.0974 28.1841C18.9527 28.1841 18.8139 28.1265 18.7116 28.0239C18.6092 27.9214 18.5518 27.7824 18.5518 27.6374V15.6668C18.5518 15.5218 18.6092 15.3827 18.7116 15.2802C18.8139 15.1777 18.9527 15.1201 19.0974 15.1201C19.2421 15.1201 19.3809 15.1777 19.4832 15.2802C19.5855 15.3827 19.643 15.5218 19.643 15.6668V27.6385C19.6427 27.7833 19.5851 27.9221 19.4828 28.0243C19.3805 28.1266 19.2419 28.1841 19.0974 28.1841Z" fill="#1D37B5"/>
<path d="M33.5619 28.1843C33.4172 28.1843 33.2784 28.1267 33.1761 28.0242C33.0737 27.9216 33.0163 27.7826 33.0163 27.6376V22.5976C33.0152 22.4088 32.9397 22.2282 32.8062 22.095C32.6727 21.9619 32.492 21.8871 32.3037 21.8869H5.89369C5.70531 21.8871 5.52463 21.9619 5.39112 22.095C5.25761 22.2282 5.18211 22.4088 5.1811 22.5976V27.6376C5.1811 27.7826 5.12361 27.9216 5.02129 28.0242C4.91896 28.1267 4.78018 28.1843 4.63547 28.1843C4.49076 28.1843 4.35198 28.1267 4.24965 28.0242C4.14733 27.9216 4.08984 27.7826 4.08984 27.6376V22.5976C4.09129 22.119 4.2819 21.6605 4.61997 21.3224C4.95804 20.9844 5.41602 20.7942 5.89369 20.7936H32.302C32.7802 20.7942 33.2386 20.9847 33.5767 21.3234C33.9149 21.6621 34.1051 22.1213 34.1059 22.6003V27.6404C34.1051 27.7846 34.0476 27.9227 33.9457 28.0246C33.8438 28.1264 33.7058 28.1838 33.5619 28.1843Z" fill="#1D37B5"/>
<path d="M33.5617 36.3748C32.6453 36.3749 31.7494 36.1027 30.9874 35.5927C30.2253 35.0827 29.6314 34.3577 29.2806 33.5095C28.9298 32.6612 28.838 31.7278 29.0167 30.8273C29.1954 29.9268 29.6367 29.0996 30.2847 28.4503C30.9326 27.801 31.7582 27.3588 32.6571 27.1797C33.5559 27.0005 34.4875 27.0924 35.3342 27.4437C36.1809 27.7951 36.9046 28.3901 37.4137 29.1535C37.9229 29.9169 38.1947 30.8144 38.1947 31.7326C38.1935 32.9633 37.705 34.1433 36.8365 35.0136C35.9679 35.8839 34.7902 36.3735 33.5617 36.3748ZM33.5617 28.1843C32.8611 28.1842 32.1762 28.3922 31.5936 28.7821C31.011 29.1721 30.5569 29.7263 30.2887 30.3748C30.0206 31.0233 29.9504 31.7369 30.087 32.4254C30.2237 33.1138 30.5611 33.7462 31.0565 34.2426C31.5519 34.7389 32.1831 35.0769 32.8703 35.2138C33.5575 35.3508 34.2697 35.2804 34.917 35.0118C35.5643 34.7431 36.1175 34.2881 36.5067 33.7044C36.8958 33.1208 37.1035 32.4345 37.1034 31.7326C37.1021 30.7919 36.7285 29.8902 36.0646 29.225C35.4007 28.5598 34.5007 28.1856 33.5617 28.1843Z" fill="#1D37B5"/>
<path d="M19.0983 36.3748C18.1819 36.3748 17.2861 36.1025 16.5241 35.5924C15.7621 35.0823 15.1682 34.3573 14.8175 33.5091C14.4669 32.6608 14.3751 31.7274 14.5539 30.827C14.7327 29.9265 15.174 29.0993 15.822 28.4501C16.47 27.8009 17.2956 27.3587 18.1944 27.1796C19.0932 27.0005 20.0248 27.0924 20.8715 27.4438C21.7181 27.7951 22.4418 28.3901 22.9509 29.1535C23.46 29.9169 23.7318 30.8145 23.7318 31.7326C23.7306 32.9634 23.2421 34.1435 22.3734 35.0138C21.5047 35.8842 20.3268 36.3736 19.0983 36.3748ZM19.0983 28.1843C18.3977 28.1843 17.7128 28.3924 17.1303 28.7824C16.5478 29.1724 16.0938 29.7267 15.8257 30.3752C15.5576 31.0237 15.4875 31.7373 15.6242 32.4257C15.7609 33.1141 16.0983 33.7465 16.5938 34.2428C17.0892 34.7391 17.7204 35.077 18.4076 35.2139C19.0948 35.3508 19.807 35.2804 20.4542 35.0117C21.1015 34.743 21.6547 34.2881 22.0438 33.7044C22.433 33.1207 22.6406 32.4345 22.6405 31.7326C22.6392 30.7918 22.2656 29.89 21.6016 29.2248C20.9375 28.5596 20.0373 28.1854 19.0983 28.1843Z" fill="#1D37B5"/>
<path d="M4.63401 36.3748C3.71757 36.3749 2.82169 36.1027 2.05965 35.5927C1.29761 35.0827 0.703639 34.3577 0.35286 33.5095C0.00208049 32.6612 -0.0897552 31.7278 0.0889663 30.8273C0.267688 29.9268 0.708939 29.0996 1.35692 28.4503C2.0049 27.801 2.8305 27.3588 3.72932 27.1797C4.62814 27.0005 5.5598 27.0924 6.40648 27.4437C7.25317 27.7951 7.97685 28.3901 8.48601 29.1535C8.99516 29.9169 9.26692 30.8144 9.26692 31.7326C9.26577 32.9633 8.7773 34.1433 7.90873 35.0136C7.04016 35.8839 5.86243 36.3735 4.63401 36.3748ZM4.63401 28.1843C3.93338 28.1842 3.24845 28.3922 2.66586 28.7821C2.08326 29.1721 1.62916 29.7263 1.36099 30.3748C1.09282 31.0233 1.02263 31.7369 1.15929 32.4254C1.29595 33.1138 1.63332 33.7462 2.12874 34.2426C2.62416 34.7389 3.25537 35.0769 3.94255 35.2138C4.62972 35.3508 5.34198 35.2804 5.98926 35.0118C6.63653 34.7431 7.18975 34.2881 7.57893 33.7044C7.96811 33.1208 8.17578 32.4345 8.17567 31.7326C8.17437 30.7919 7.80082 29.8902 7.13691 29.225C6.473 28.5598 5.57292 28.1856 4.63401 28.1843Z" fill="#1D37B5"/>
</svg>
