<svg width="27" height="35" viewBox="0 0 27 35" fill="none" xmlns="http://www.w3.org/2000/svg">
<path d="M5.92053 15.1013C5.55744 15.1013 5.2627 15.3968 5.2627 15.7609C5.2627 16.1249 5.55744 16.4204 5.92053 16.4204C6.28363 16.4204 6.57837 16.1249 6.57837 15.7609C6.57837 15.3968 6.28363 15.1013 5.92053 15.1013Z" fill="#1D37B5"/>
<path d="M1.97344 0.602295C0.88522 0.602295 0 1.48918 0 2.57943V33.6864C0 34.0504 0.294474 34.3455 0.657812 34.3455H3.28906C3.6524 34.3455 3.94688 34.0504 3.94688 33.6864V19.4654C7.0833 20.049 10.2567 19.752 13.166 18.6666L13.2634 18.6306C19.8474 16.1754 25.1097 18.9449 25.4103 19.0085C25.8423 19.181 26.3125 18.8625 26.3125 18.3965V3.89753C26.3125 3.62799 26.1488 3.38574 25.8991 3.28559C25.5928 3.22149 19.9011 0.247543 12.786 2.92131C9.97845 3.97527 6.94172 4.22113 4.00392 3.63236L3.94688 3.62078V2.57943C3.94688 1.48712 3.06371 0.602295 1.97344 0.602295ZM1.31562 33.0274V2.57943C1.31562 2.21593 1.61061 1.92039 1.97344 1.92039C2.33652 1.92039 2.63125 2.21567 2.63125 2.57943V33.0274H1.31562ZM13.2477 4.15548C19.6324 1.75614 24.835 4.31123 24.9969 4.34367V17.4265C21.0659 15.9377 16.7498 15.9241 12.8058 17.3948L12.7084 17.4311C9.90676 18.4758 6.87774 18.7158 3.94688 18.1242V4.96307C7.063 5.54978 10.2742 5.272 13.2477 4.15548Z" fill="#1D37B5"/>
<path d="M5.92053 13.7834C6.28388 13.7834 6.57837 13.4884 6.57837 13.1244V7.85171C6.57837 7.48767 6.28388 7.19263 5.92053 7.19263C5.55718 7.19263 5.2627 7.48767 5.2627 7.85171V13.1244C5.2627 13.4884 5.55718 13.7834 5.92053 13.7834Z" fill="#1D37B5"/>
</svg>
