<svg width="28" height="12" viewBox="0 0 28 12" fill="none" xmlns="http://www.w3.org/2000/svg">
<path d="M27.1797 1.68482H25.2404C24.2121 0.708566 22.8243 0.108887 21.2992 0.108887C19.5046 0.108887 17.9001 0.939398 16.8479 2.23672C15.1877 0.919235 12.815 0.916989 11.152 2.23672C10.0997 0.939398 8.49532 0.108887 6.70064 0.108887C5.17557 0.108887 3.78777 0.708621 2.75948 1.68482H0.820312C0.367281 1.68482 0 2.05279 0 2.50667C0 2.96056 0.367281 3.32853 0.820312 3.32853H1.55116C1.17709 4.09115 0.966547 4.94824 0.966547 5.85381C0.966547 9.02157 3.53888 11.5987 6.7007 11.5987C9.86251 11.5987 12.4348 9.02157 12.4348 5.85381C12.4348 5.08067 12.2812 4.34286 12.0036 3.66894C13.1286 2.63318 14.8699 2.63176 15.9964 3.66894C15.7188 4.34286 15.5652 5.08067 15.5652 5.85381C15.5652 9.02157 18.1375 11.5987 21.2994 11.5987C24.4612 11.5987 27.0335 9.02157 27.0335 5.85381C27.0335 4.94824 26.823 4.09115 26.4489 3.32853H27.1797C27.6327 3.32853 28 2.96056 28 2.50667C28 2.05279 27.6327 1.68482 27.1797 1.68482ZM6.7007 9.95503C4.44352 9.95503 2.60717 8.11523 2.60717 5.85381C2.60717 3.5924 4.44352 1.7526 6.7007 1.7526C8.95787 1.7526 10.7942 3.5924 10.7942 5.85381C10.7942 8.11523 8.95787 9.95503 6.7007 9.95503ZM21.2993 9.95503C19.0421 9.95503 17.2058 8.11523 17.2058 5.85381C17.2058 3.5924 19.0421 1.7526 21.2993 1.7526C23.5565 1.7526 25.3928 3.5924 25.3928 5.85381C25.3928 8.11523 23.5565 9.95503 21.2993 9.95503Z" fill="#959AB2"/>
</svg>
