<svg width="17" height="17" viewBox="0 0 17 17" fill="none" xmlns="http://www.w3.org/2000/svg">
<g clip-path="url(#clip0_0_209)">
<path d="M16.9838 4.99805C16.944 4.09477 16.7979 3.47378 16.5886 2.93568C16.3728 2.3645 16.0407 1.85312 15.6056 1.42801C15.1805 0.996288 14.6657 0.660819 14.1012 0.44833C13.5599 0.239083 12.9422 0.0930128 12.0389 0.0531873C11.1289 0.00998882 10.84 0 8.53193 0C6.22387 0 5.93497 0.00998882 5.02832 0.0498144C4.12504 0.08964 3.50405 0.23584 2.96608 0.444957C2.39477 0.660819 1.8834 0.992916 1.45829 1.42801C1.02656 1.85312 0.691223 2.36787 0.478603 2.93243C0.269357 3.47378 0.123286 4.0914 0.0834607 4.99467C0.0402623 5.90469 0.0302734 6.19359 0.0302734 8.50166C0.0302734 10.8097 0.0402623 11.0986 0.0800879 12.0053C0.119913 12.9085 0.266114 13.5295 0.47536 14.0676C0.691223 14.6388 1.02656 15.1502 1.45829 15.5753C1.8834 16.007 2.39814 16.3425 2.96271 16.555C3.50405 16.7642 4.12167 16.9103 5.02508 16.9501C5.9316 16.9901 6.22062 16.9999 8.52869 16.9999C10.8368 16.9999 11.1257 16.9901 12.0323 16.9501C12.9356 16.9103 13.5566 16.7642 14.0945 16.555C15.237 16.1133 16.1403 15.21 16.582 14.0676C16.7911 13.5263 16.9373 12.9085 16.9772 12.0053C17.017 11.0986 17.027 10.8097 17.027 8.50166C17.027 6.19359 17.0236 5.90469 16.9838 4.99805ZM15.4529 11.9389C15.4163 12.7691 15.2769 13.2174 15.1606 13.5163C14.875 14.2569 14.2872 14.8447 13.5466 15.1304C13.2477 15.2466 12.7961 15.386 11.9691 15.4225C11.0725 15.4624 10.8035 15.4723 8.53531 15.4723C6.26707 15.4723 5.99477 15.4624 5.10136 15.4225C4.27112 15.386 3.82279 15.2466 3.5239 15.1304C3.15535 14.9941 2.81988 14.7783 2.54759 14.496C2.26531 14.2203 2.04944 13.8882 1.91323 13.5197C1.797 13.2208 1.65754 12.7691 1.62109 11.9422C1.58114 11.0456 1.57128 10.7765 1.57128 8.50828C1.57128 6.24003 1.58114 5.96774 1.62109 5.07445C1.65754 4.24421 1.797 3.79588 1.91323 3.497C2.04944 3.12832 2.26531 2.79298 2.55096 2.52056C2.8265 2.23828 3.15859 2.02241 3.52727 1.88633C3.82616 1.7701 4.27786 1.63064 5.10473 1.59406C6.00139 1.55424 6.27044 1.54425 8.53855 1.54425C10.8102 1.54425 11.0791 1.55424 11.9725 1.59406C12.8027 1.63064 13.2511 1.7701 13.55 1.88633C13.9185 2.02241 14.254 2.23828 14.5263 2.52056C14.8086 2.79622 15.0244 3.12832 15.1606 3.497C15.2769 3.79588 15.4163 4.24746 15.4529 5.07445C15.4927 5.97111 15.5027 6.24003 15.5027 8.50828C15.5027 10.7765 15.4927 11.0422 15.4529 11.9389Z" fill="white"/>
<path d="M8.53113 4.13452C6.12019 4.13452 4.16406 6.09052 4.16406 8.50159C4.16406 10.9127 6.12019 12.8686 8.53113 12.8686C10.9422 12.8686 12.8982 10.9127 12.8982 8.50159C12.8982 6.09052 10.9422 4.13452 8.53113 4.13452ZM8.53113 11.3344C6.96703 11.3344 5.69832 10.0658 5.69832 8.50159C5.69832 6.93736 6.96703 5.66878 8.53113 5.66878C10.0954 5.66878 11.3639 6.93736 11.3639 8.50159C11.3639 10.0658 10.0954 11.3344 8.53113 11.3344Z" fill="white"/>
<path d="M14.0909 3.96189C14.0909 4.5249 13.6344 4.9814 13.0713 4.9814C12.5083 4.9814 12.0518 4.5249 12.0518 3.96189C12.0518 3.39876 12.5083 2.94238 13.0713 2.94238C13.6344 2.94238 14.0909 3.39876 14.0909 3.96189Z" fill="white"/>
</g>
<defs>
<clipPath id="clip0_0_209">
<rect width="17" height="17" fill="white"/>
</clipPath>
</defs>
</svg>
