<svg width="20" height="20" viewBox="0 0 20 20" fill="none" xmlns="http://www.w3.org/2000/svg">
<path d="M18.4382 14.2927H17.8561V13.5576C17.8561 11.8171 16.4401 10.4012 14.6997 10.4012H13.4772H10.7168V7.68276H12.4629C13.324 7.68276 14.0246 6.98218 14.0246 6.12101V2.33007C14.0246 1.46894 13.324 0.768311 12.4629 0.768311H7.79777C6.93664 0.768311 6.23605 1.4689 6.23605 2.33007V6.12097C6.23605 6.9821 6.93664 7.68273 7.79777 7.68273H9.54387V10.4012H6.82254H5.32633C3.58586 10.4012 2.17 11.8171 2.17 13.5576V14.2926H1.56176C0.700586 14.2927 0 14.9933 0 15.8544V17.6703C0 18.5314 0.700586 19.232 1.56176 19.232H3.95105C4.81219 19.232 5.51277 18.5314 5.51277 17.6703V15.8544C5.51277 14.9933 4.81219 14.2927 3.95105 14.2927H3.34289V13.5576C3.34289 12.464 4.23266 11.5742 5.32629 11.5742H6.8225H9.54383V14.2927H8.93566C8.07449 14.2927 7.37391 14.9933 7.37391 15.8544V17.6703C7.37391 18.5314 8.07449 19.232 8.93566 19.232H11.325C12.1861 19.232 12.8867 18.5314 12.8867 17.6703V15.8544C12.8867 14.9933 12.1861 14.2927 11.325 14.2927H10.7168V11.5742H13.4773H14.6998C15.7934 11.5742 16.6832 12.464 16.6832 13.5576V14.2927H16.0489C15.1878 14.2927 14.4872 14.9933 14.4872 15.8544V17.6703C14.4872 18.5314 15.1878 19.232 16.0489 19.232H18.4382C19.2994 19.232 20 18.5314 20 17.6703V15.8544C20 14.9933 19.2994 14.2927 18.4382 14.2927ZM3.95109 15.4656C4.16547 15.4656 4.33988 15.6401 4.33988 15.8544V17.6703C4.33988 17.8847 4.16547 18.0591 3.95109 18.0591H1.5618C1.34742 18.0591 1.17297 17.8847 1.17297 17.6703V15.8544C1.17297 15.6401 1.34742 15.4656 1.5618 15.4656H3.95109ZM11.325 15.4656C11.5394 15.4656 11.7138 15.6401 11.7138 15.8544V17.6703C11.7138 17.8847 11.5394 18.0591 11.325 18.0591H8.9357C8.72133 18.0591 8.54688 17.8847 8.54688 17.6703V15.8544C8.54688 15.6401 8.72133 15.4656 8.9357 15.4656H11.325ZM7.79777 6.50983C7.5834 6.50983 7.40898 6.33538 7.40898 6.12101V2.33007C7.40898 2.11569 7.5834 1.94124 7.79777 1.94124H12.4629C12.6772 1.94124 12.8516 2.11565 12.8516 2.33007V6.12097C12.8516 6.33534 12.6772 6.5098 12.4629 6.5098H7.79777V6.50983ZM18.8271 17.6703C18.8271 17.8847 18.6526 18.0591 18.4382 18.0591H16.0489C15.8346 18.0591 15.6602 17.8847 15.6602 17.6703V15.8545C15.6602 15.6401 15.8346 15.4657 16.0489 15.4657H18.4382C18.6526 15.4657 18.8271 15.6401 18.8271 15.8545V17.6703Z" fill="#9FAAE0"/>
</svg>
