<svg width="12" height="21" viewBox="0 0 12 21" fill="none" xmlns="http://www.w3.org/2000/svg">
<path d="M9.87025 0.0976562H1.45543C0.650097 0.0976562 0 0.751896 0 1.55728V18.6771C0 19.4817 0.650097 20.1352 1.45543 20.1352H9.87025C10.6741 20.1352 11.3257 19.4817 11.3257 18.6771V1.55728C11.3257 0.751896 10.6741 0.0976562 9.87025 0.0976562ZM3.58647 0.984093H7.74068C7.84562 0.984093 7.93089 1.14108 7.93089 1.33531C7.93089 1.52954 7.84562 1.68726 7.74068 1.68726H3.58647C3.48079 1.68726 3.39698 1.52954 3.39698 1.33531C3.39698 1.14108 3.48079 0.984093 3.58647 0.984093ZM5.66357 18.6946C5.15122 18.6946 4.73434 18.2769 4.73434 17.7629C4.73434 17.2488 5.15122 16.8326 5.66357 16.8326C6.17447 16.8326 6.59134 17.2488 6.59134 17.7629C6.59134 18.2769 6.17447 18.6946 5.66357 18.6946ZM10.2354 15.5044H1.09103V2.56055H10.2354V15.5044Z" fill="#959AB2"/>
</svg>
