<svg width="18" height="18" viewBox="0 0 18 18" fill="none" xmlns="http://www.w3.org/2000/svg">
<path d="M15.155 10.7298C14.7625 10.3226 14.289 10.1048 13.7872 10.1048C13.2895 10.1048 12.812 10.3185 12.4032 10.7258L11.1245 11.996C11.0192 11.9395 10.914 11.8871 10.8129 11.8347C10.6672 11.7621 10.5296 11.6935 10.4122 11.621C9.21438 10.8629 8.1258 9.875 7.08174 8.59677C6.57589 7.95968 6.23596 7.42339 5.98911 6.87903C6.32095 6.57661 6.6285 6.2621 6.92796 5.95968C7.04127 5.84677 7.15458 5.72984 7.26789 5.61694C8.11771 4.77016 8.11771 3.67339 7.26789 2.82661L6.16312 1.72581C6.03767 1.60081 5.90818 1.47177 5.78677 1.34274C5.54397 1.09274 5.28902 0.834677 5.02598 0.592742C4.63345 0.205645 4.16402 0 3.67032 0C3.17661 0 2.69909 0.205645 2.29442 0.592742C2.29037 0.596774 2.29037 0.596774 2.28632 0.600806L0.910424 1.98387C0.392439 2.5 0.097025 3.12903 0.0322768 3.85887C-0.0648455 5.03629 0.283176 6.13306 0.550263 6.85081C1.20584 8.6129 2.18515 10.246 3.64604 11.996C5.41852 14.1048 7.55116 15.7702 9.98731 16.9435C10.9181 17.3831 12.1604 17.9032 13.5485 17.9919C13.6334 17.996 13.7225 18 13.8034 18C14.7382 18 15.5233 17.6653 16.1384 17C16.1424 16.9919 16.1505 16.9879 16.1546 16.9798C16.365 16.7258 16.6078 16.496 16.8628 16.25C17.0368 16.0847 17.2148 15.9113 17.3888 15.7298C17.7895 15.3145 17.9999 14.8306 17.9999 14.3347C17.9999 13.8347 17.7854 13.3548 17.3767 12.9516L15.155 10.7298ZM16.6038 14.9758C16.5997 14.9758 16.5997 14.9798 16.6038 14.9758C16.4459 15.1452 16.2841 15.2984 16.1101 15.4677C15.847 15.7177 15.5799 15.9798 15.329 16.2742C14.9203 16.7097 14.4388 16.9153 13.8075 16.9153C13.7468 16.9153 13.682 16.9153 13.6213 16.9113C12.4194 16.8347 11.3025 16.3669 10.4648 15.9677C8.17436 14.8629 6.16312 13.2944 4.49181 11.3065C3.11186 9.64919 2.1892 8.11693 1.57814 6.47177C1.20179 5.46774 1.0642 4.68548 1.1249 3.94758C1.16537 3.47581 1.34747 3.08468 1.68336 2.75L3.0633 1.375C3.26159 1.18952 3.47203 1.08871 3.67841 1.08871C3.93336 1.08871 4.13974 1.24194 4.26924 1.37097C4.27328 1.375 4.27733 1.37903 4.28138 1.38306C4.52823 1.6129 4.76294 1.85081 5.0098 2.10484C5.13524 2.23387 5.26474 2.3629 5.39424 2.49597L6.499 3.59677C6.92796 4.02419 6.92796 4.41935 6.499 4.84677C6.38165 4.96371 6.26834 5.08065 6.15098 5.19355C5.81105 5.54032 5.48731 5.8629 5.13524 6.17742C5.12715 6.18548 5.11906 6.18952 5.11501 6.19758C4.76699 6.54435 4.83174 6.88306 4.90458 7.1129C4.90863 7.125 4.91267 7.1371 4.91672 7.14919C5.20404 7.84274 5.60872 8.49597 6.22382 9.27419L6.22787 9.27823C7.34478 10.6492 8.52238 11.7177 9.8214 12.5363C9.98731 12.6411 10.1573 12.7258 10.3191 12.8065C10.4648 12.879 10.6024 12.9476 10.7198 13.0202C10.736 13.0282 10.7522 13.0403 10.7683 13.0484C10.9059 13.1169 11.0354 13.1492 11.169 13.1492C11.5048 13.1492 11.7153 12.9395 11.7841 12.871L13.1681 11.4919C13.3057 11.3548 13.5242 11.1895 13.7791 11.1895C14.03 11.1895 14.2364 11.3468 14.3619 11.4839C14.3659 11.4879 14.3659 11.4879 14.37 11.4919L16.5997 13.7137C17.0165 14.125 17.0165 14.5484 16.6038 14.9758Z" fill="#1D37B5"/>
</svg>
