<svg width="69" height="69" viewBox="0 0 69 69" fill="none" xmlns="http://www.w3.org/2000/svg">
<path d="M34.4999 0C15.4462 0 0 15.4462 0 34.4999C0 53.5537 15.4462 68.9999 34.4999 68.9999C53.5537 68.9999 68.9999 53.5537 68.9999 34.4999C68.9796 15.4547 53.5453 0.0203592 34.4999 0ZM49.0292 35.5992C48.7904 36.0783 48.4021 36.4667 47.9229 36.7055V36.7178L28.2086 46.575C26.9911 47.1833 25.5111 46.6896 24.9027 45.4721C24.7297 45.126 24.6406 44.7439 24.6427 44.3571V24.6429C24.6422 23.2819 25.7449 22.1781 27.1059 22.1774C27.4887 22.1773 27.8663 22.2662 28.2086 22.4373L47.9229 32.2945C49.141 32.9015 49.6364 34.3811 49.0292 35.5992Z" fill="white"/>
</svg>
