<svg width="17" height="18" viewBox="0 0 17 18" fill="none" xmlns="http://www.w3.org/2000/svg">
<path d="M11.3523 2.05025C8.75888 -0.547999 4.53798 -0.547999 1.94461 2.05025C-0.648202 4.64905 -0.648202 8.87733 1.94461 11.4761C4.25407 13.7894 7.85095 14.0372 10.4426 12.2309C10.4972 12.4894 10.622 12.7361 10.8227 12.9372L14.5994 16.7211C15.1498 17.2713 16.0392 17.2713 16.5868 16.7211C17.1366 16.1702 17.1366 15.2792 16.5868 14.73L12.81 10.945C12.6104 10.7456 12.3636 10.62 12.1056 10.5654C13.9096 7.96825 13.6623 4.36518 11.3523 2.05025ZM10.1599 10.2815C8.22368 12.2213 5.07262 12.2213 3.13701 10.2815C1.20196 8.34168 1.20196 5.18526 3.13701 3.24545C5.07262 1.3062 8.22368 1.3062 10.1599 3.24545C12.096 5.18526 12.096 8.34168 10.1599 10.2815Z" fill="#959AB2"/>
</svg>
