<svg width="17" height="17" viewBox="0 0 17 17" fill="none" xmlns="http://www.w3.org/2000/svg">
<g clip-path="url(#clip0_0_1058)">
<path d="M16.2271 0H10.0453C9.61849 0 9.27251 0.345977 9.27251 0.772736C9.27251 1.1995 9.61849 1.54547 10.0453 1.54547H14.3616L6.40798 9.49908C6.10619 9.80087 6.10619 10.2901 6.40798 10.5919C6.55882 10.7427 6.75658 10.8182 6.95434 10.8182C7.15209 10.8182 7.34988 10.7428 7.50076 10.5918L15.4544 2.63825V6.95456C15.4544 7.38132 15.8004 7.7273 16.2271 7.7273C16.6539 7.7273 16.9998 7.38132 16.9998 6.95456V0.772736C16.9998 0.345977 16.6538 0 16.2271 0Z" fill="#959AB2"/>
<path d="M13.1364 7.72729C12.7096 7.72729 12.3636 8.07327 12.3636 8.50003V15.4546H1.54544V4.63638H8.5C8.92676 4.63638 9.27274 4.29041 9.27274 3.86365C9.27274 3.43689 8.92676 3.09094 8.5 3.09094H0.772736C0.345977 3.09094 0 3.43692 0 3.86368V16.2273C0 16.6541 0.345977 17 0.772736 17H13.1364C13.5631 17 13.9091 16.6541 13.9091 16.2273V8.50003C13.9091 8.07327 13.5631 7.72729 13.1364 7.72729Z" fill="#959AB2"/>
</g>
<defs>
<clipPath id="clip0_0_1058">
<rect width="17" height="17" fill="white"/>
</clipPath>
</defs>
</svg>
