<svg width="21" height="17" viewBox="0 0 21 17" fill="none" xmlns="http://www.w3.org/2000/svg">
<path d="M0.30823 15.1211C2.2729 16.3505 4.55941 17 6.92019 17C10.3774 17 13.5454 15.6905 15.8416 13.3129C18.0389 11.0373 19.2475 7.97968 19.1874 4.87671C20.0203 4.17399 21 2.83219 21 1.52439C21 1.02307 20.4483 0.704839 20.0009 0.960296C19.2184 1.41367 18.5048 1.53224 17.7709 1.32909C16.2722 -0.111227 14.0414 -0.414636 12.1617 0.584522C10.5188 1.45639 9.60547 3.0519 9.6877 4.79563C6.91223 4.46171 4.34809 3.08939 2.56026 0.956808C2.26671 0.608934 1.70967 0.649912 1.47624 1.04399C0.615044 2.49827 0.623886 4.18358 1.37279 5.54456C1.01647 5.60647 0.796302 5.90203 0.796302 6.222C0.796302 7.58996 1.42054 8.84719 2.42586 9.7051C2.23841 9.88297 2.17652 10.1471 2.2561 10.3825C2.69819 11.6921 3.69909 12.7157 4.95022 13.2283C3.58945 13.8691 2.08456 14.0827 0.745019 13.9206C0.0518158 13.8282 -0.290365 14.7471 0.30823 15.1211ZM7.10145 13.4524C7.59748 13.0766 7.33399 12.2937 6.71152 12.2806C5.61513 12.2579 4.61688 11.7252 3.99529 10.8874C4.29503 10.8682 4.60538 10.8228 4.9007 10.7444C5.57357 10.5648 5.54174 9.60746 4.85826 9.47232C3.61775 9.22645 2.64426 8.3354 2.27909 7.18803C2.61242 7.26911 2.95195 7.31445 3.2906 7.32055C3.9617 7.32404 4.21546 6.47572 3.66814 6.12087C2.4347 5.31962 1.90861 3.90458 2.25698 2.57412C4.41086 4.72588 7.3331 6.02235 10.4242 6.16882C10.8672 6.19585 11.1997 5.7852 11.1024 5.36932C10.6824 3.57415 11.6992 2.31605 12.7912 1.73626C13.8717 1.16082 15.6065 0.981221 16.9363 2.35702C17.3315 2.76767 18.6649 2.78337 19.343 2.6273C19.0389 3.19227 18.5711 3.72847 18.1335 4.03013C17.9469 4.15917 17.8399 4.37365 17.8514 4.59772C17.9938 7.46179 16.9115 10.3093 14.8823 12.4096C12.8381 14.5256 10.0113 15.6913 6.92107 15.6913C5.69205 15.6913 4.4869 15.4943 3.34807 15.1142C4.70972 14.8543 6.00329 14.2859 7.10145 13.4524Z" fill="white"/>
</svg>
