<svg width="16" height="11" viewBox="0 0 16 11" fill="none" xmlns="http://www.w3.org/2000/svg">
<path d="M15.8983 4.79661C15.7554 4.60072 12.3497 0 7.99993 0C3.6502 0 0.244313 4.60072 0.101532 4.79643C-0.0338438 4.98227 -0.0338438 5.23434 0.101532 5.42018C0.244313 5.61608 3.6502 10.2168 7.99993 10.2168C12.3497 10.2168 15.7554 5.61605 15.8983 5.42034C16.0339 5.23452 16.0339 4.98227 15.8983 4.79661ZM7.99993 9.15989C4.79589 9.15989 2.02085 6.1063 1.19938 5.10804C2.01979 4.1089 4.78901 1.0569 7.99993 1.0569C11.2038 1.0569 13.9787 4.10996 14.8005 5.10876C13.9801 6.10787 11.2108 9.15989 7.99993 9.15989Z" fill="#C0C3D1"/>
<path d="M7.99982 1.93762C6.25475 1.93762 4.83496 3.36009 4.83496 5.10846C4.83496 6.85683 6.25475 8.2793 7.99982 8.2793C9.74489 8.2793 11.1647 6.85683 11.1647 5.10846C11.1647 3.36009 9.74489 1.93762 7.99982 1.93762ZM7.99982 7.22233C6.83637 7.22233 5.88993 6.27407 5.88993 5.10846C5.88993 3.94285 6.83641 2.99459 7.99982 2.99459C9.16323 2.99459 10.1097 3.94285 10.1097 5.10846C10.1097 6.27407 9.16326 7.22233 7.99982 7.22233Z" fill="#C0C3D1"/>
</svg>
