<svg width="18" height="18" viewBox="0 0 18 18" fill="none" xmlns="http://www.w3.org/2000/svg">
<path d="M14.9766 17.4367H3.02344C2.13173 17.4367 1.40625 16.7113 1.40625 15.8195V7.31103C1.40625 7.00039 1.65807 6.74854 1.96875 6.74854C2.27943 6.74854 2.53125 7.00039 2.53125 7.31103V15.8195C2.53125 16.0909 2.75203 16.3117 3.02344 16.3117H14.9766C15.248 16.3117 15.4688 16.0909 15.4688 15.8195V7.31103C15.4688 7.00039 15.7206 6.74854 16.0312 6.74854C16.3419 6.74854 16.5938 7.00039 16.5938 7.31103V15.8195C16.5938 16.7112 15.8683 17.4367 14.9766 17.4367Z" fill="#959AB2"/>
<path d="M17.4375 9.27968C17.2935 9.27968 17.1496 9.22476 17.0398 9.1149L10.0441 2.11925C9.46838 1.54353 8.53164 1.54353 7.95592 2.11925L0.960249 9.11494C0.740593 9.33463 0.384425 9.33463 0.164769 9.11494C-0.0549229 8.89528 -0.0549229 8.53911 0.164769 8.31945L7.16044 1.32374C8.17477 0.309406 9.82525 0.309406 10.8395 1.32374L17.8352 8.31942C18.0549 8.53911 18.0549 8.89524 17.8352 9.1149C17.7254 9.22476 17.5815 9.27968 17.4375 9.27968Z" fill="#959AB2"/>
<path d="M11.25 17.4368H6.75C6.43932 17.4368 6.1875 17.1849 6.1875 16.8743V11.8821C6.1875 10.9128 6.97605 10.1243 7.94531 10.1243H10.0547C11.0239 10.1243 11.8125 10.9128 11.8125 11.8821V16.8743C11.8125 17.1849 11.5607 17.4368 11.25 17.4368ZM7.3125 16.3118H10.6875V11.8821C10.6875 11.5332 10.4036 11.2493 10.0547 11.2493H7.94531C7.59639 11.2493 7.3125 11.5332 7.3125 11.8821V16.3118Z" fill="#959AB2"/>
</svg>
