<svg width="19" height="19" viewBox="0 0 19 19" fill="none" xmlns="http://www.w3.org/2000/svg">
<g clip-path="url(#clip0_0_3793)">
<path d="M10.7828 18.9629H7.73418C7.22496 18.9629 6.81073 18.5495 6.81073 18.0412V11.1783H5.03209C4.52287 11.1783 4.10864 10.7648 4.10864 10.2567V7.31591C4.10864 6.80769 4.52287 6.39426 5.03209 6.39426H6.81073V4.92163C6.81073 3.46146 7.27013 2.21917 8.13911 1.32927C9.01202 0.43531 10.2319 -0.0371094 11.6669 -0.0371094L13.9919 -0.0333405C14.5003 -0.0324707 14.9138 0.380951 14.9138 0.888306V3.61874C14.9138 4.12697 14.4997 4.54039 13.9906 4.54039L12.4252 4.54097C11.9478 4.54097 11.8262 4.6365 11.8002 4.66578C11.7574 4.71434 11.7064 4.85162 11.7064 5.23068V6.39412H13.873C14.0361 6.39412 14.1941 6.43427 14.3299 6.50994C14.6229 6.67331 14.805 6.98222 14.805 7.31606L14.8038 10.2568C14.8038 10.7648 14.3896 11.1782 13.8804 11.1782H11.7064V18.0412C11.7064 18.5495 11.292 18.9629 10.7828 18.9629V18.9629ZM7.92677 17.849H10.5902V10.6797C10.5902 10.3403 10.8669 10.0643 11.2068 10.0643H13.6878L13.6888 7.50813H11.2066C10.8668 7.50813 10.5902 7.23213 10.5902 6.89278V5.23068C10.5902 4.79552 10.6345 4.30063 10.9636 3.92867C11.3613 3.479 11.988 3.42711 12.4249 3.42711L13.7977 3.42653V1.08023L11.666 1.07675C9.35987 1.07675 7.92677 2.55011 7.92677 4.92163V6.89278C7.92677 7.23198 7.65023 7.50813 7.31036 7.50813H5.22468V10.0643H7.31036C7.65023 10.0643 7.92677 10.3403 7.92677 10.6797V17.849ZM13.9898 1.08052H13.9899H13.9898Z" fill="#1D37B5"/>
</g>
<defs>
<clipPath id="clip0_0_3793">
<rect width="19" height="19" fill="white"/>
</clipPath>
</defs>
</svg>
