<svg width="17" height="17" viewBox="0 0 17 17" fill="none" xmlns="http://www.w3.org/2000/svg">
<g clip-path="url(#clip0_0_3797)">
<path d="M16.9833 4.99805C16.9435 4.09477 16.7974 3.47378 16.5882 2.93568C16.3723 2.3645 16.0402 1.85312 15.6051 1.42801C15.18 0.996288 14.6652 0.660819 14.1007 0.44833C13.5595 0.239083 12.9417 0.0930128 12.0384 0.0531873C11.1284 0.00998882 10.8395 0 8.53145 0C6.22338 0 5.93448 0.00998882 5.02783 0.0498144C4.12456 0.08964 3.50356 0.23584 2.96559 0.444957C2.39428 0.660819 1.88291 0.992916 1.4578 1.42801C1.02607 1.85312 0.690734 2.36787 0.478115 2.93243C0.268868 3.47378 0.122798 4.0914 0.0829724 4.99467C0.039774 5.90469 0.0297852 6.19359 0.0297852 8.50166C0.0297852 10.8097 0.039774 11.0986 0.0795996 12.0053C0.119425 12.9085 0.265625 13.5295 0.474872 14.0676C0.690734 14.6388 1.02607 15.1502 1.4578 15.5753C1.88291 16.007 2.39766 16.3425 2.96222 16.555C3.50356 16.7642 4.12118 16.9103 5.02459 16.9501C5.93111 16.9901 6.22014 16.9999 8.5282 16.9999C10.8363 16.9999 11.1252 16.9901 12.0318 16.9501C12.9351 16.9103 13.5561 16.7642 14.0941 16.555C15.2365 16.1133 16.1398 15.21 16.5815 14.0676C16.7907 13.5263 16.9369 12.9085 16.9767 12.0053C17.0165 11.0986 17.0265 10.8097 17.0265 8.50166C17.0265 6.19359 17.0231 5.90469 16.9833 4.99805ZM15.4524 11.9389C15.4158 12.7691 15.2764 13.2174 15.1601 13.5163C14.8745 14.2569 14.2867 14.8447 13.5461 15.1304C13.2472 15.2466 12.7956 15.386 11.9686 15.4225C11.072 15.4624 10.8031 15.4723 8.53482 15.4723C6.26658 15.4723 5.99428 15.4624 5.10087 15.4225C4.27063 15.386 3.8223 15.2466 3.52341 15.1304C3.15486 14.9941 2.81939 14.7783 2.5471 14.496C2.26482 14.2203 2.04896 13.8882 1.91274 13.5197C1.79651 13.2208 1.65706 12.7691 1.6206 11.9422C1.58065 11.0456 1.57079 10.7765 1.57079 8.50828C1.57079 6.24003 1.58065 5.96774 1.6206 5.07445C1.65706 4.24421 1.79651 3.79588 1.91274 3.497C2.04896 3.12832 2.26482 2.79298 2.55047 2.52056C2.82601 2.23828 3.1581 2.02241 3.52678 1.88633C3.82567 1.7701 4.27737 1.63064 5.10424 1.59406C6.0009 1.55424 6.26995 1.54425 8.53806 1.54425C10.8097 1.54425 11.0786 1.55424 11.972 1.59406C12.8023 1.63064 13.2506 1.7701 13.5495 1.88633C13.918 2.02241 14.2535 2.23828 14.5258 2.52056C14.8081 2.79622 15.0239 3.12832 15.1601 3.497C15.2764 3.79588 15.4158 4.24746 15.4524 5.07445C15.4922 5.97111 15.5022 6.24003 15.5022 8.50828C15.5022 10.7765 15.4922 11.0422 15.4524 11.9389Z" fill="#1D37B5"/>
<path d="M8.53161 4.13452C6.12067 4.13452 4.16455 6.09052 4.16455 8.50159C4.16455 10.9127 6.12067 12.8686 8.53161 12.8686C10.9427 12.8686 12.8987 10.9127 12.8987 8.50159C12.8987 6.09052 10.9427 4.13452 8.53161 4.13452ZM8.53161 11.3344C6.96752 11.3344 5.69881 10.0658 5.69881 8.50159C5.69881 6.93736 6.96752 5.66878 8.53161 5.66878C10.0958 5.66878 11.3644 6.93736 11.3644 8.50159C11.3644 10.0658 10.0958 11.3344 8.53161 11.3344Z" fill="#1D37B5"/>
<path d="M14.0909 3.96189C14.0909 4.5249 13.6344 4.9814 13.0713 4.9814C12.5083 4.9814 12.0518 4.5249 12.0518 3.96189C12.0518 3.39876 12.5083 2.94238 13.0713 2.94238C13.6344 2.94238 14.0909 3.39876 14.0909 3.96189Z" fill="#1D37B5"/>
</g>
<defs>
<clipPath id="clip0_0_3797">
<rect width="17" height="17" fill="white"/>
</clipPath>
</defs>
</svg>
