<svg width="14" height="14" viewBox="0 0 14 14" fill="none" xmlns="http://www.w3.org/2000/svg">
<path d="M10.5434 6.30702C10.8295 6.30702 11.0614 6.05578 11.0614 5.74586C11.0614 5.43593 10.8295 5.18469 10.5434 5.18469C10.2573 5.18469 10.0254 5.43593 10.0254 5.74586C10.0254 6.05578 10.2573 6.30702 10.5434 6.30702Z" fill="#C0C3D1"/>
<path d="M11.8125 1.09434H11.102V0.547176C11.0955 0.406582 11.0351 0.273898 10.9333 0.1767C10.8315 0.0795031 10.6962 0.0252686 10.5554 0.0252686C10.4147 0.0252686 10.2793 0.0795031 10.1775 0.1767C10.0758 0.273898 10.0153 0.406582 10.0088 0.547176V1.09434H7.51917V0.547176C7.51267 0.406582 7.45224 0.273898 7.35045 0.1767C7.24866 0.0795031 7.11333 0.0252686 6.97258 0.0252686C6.83184 0.0252686 6.69651 0.0795031 6.59471 0.1767C6.49292 0.273898 6.4325 0.406582 6.426 0.547176V1.09434H3.96667V0.547176C3.96017 0.406582 3.89975 0.273898 3.79795 0.1767C3.69616 0.0795031 3.56083 0.0252686 3.42008 0.0252686C3.27934 0.0252686 3.14401 0.0795031 3.04221 0.1767C2.94042 0.273898 2.88 0.406582 2.8735 0.547176V1.09434H2.1875C1.60753 1.09496 1.05149 1.32563 0.641386 1.73573C0.231284 2.14583 0.000617649 2.70187 0 3.28184L0 11.8137C0.000926315 12.3934 0.231729 12.9492 0.641798 13.359C1.05187 13.7689 1.60773 13.9994 2.1875 14H6.37117C6.51176 13.9935 6.64444 13.9331 6.74164 13.8313C6.83884 13.7295 6.89307 13.5942 6.89307 13.4534C6.89307 13.3127 6.83884 13.1774 6.74164 13.0756C6.64444 12.9738 6.51176 12.9133 6.37117 12.9068H2.1875C1.89757 12.9068 1.61952 12.7917 1.41451 12.5867C1.20951 12.3817 1.09433 12.1036 1.09433 11.8137V3.28184C1.09433 3.13819 1.12265 2.99594 1.17766 2.86324C1.23267 2.73053 1.31329 2.60997 1.41493 2.50845C1.51656 2.40692 1.63721 2.32642 1.76997 2.27155C1.90274 2.21669 2.04501 2.18852 2.18867 2.18868H2.87233V2.73584C2.87233 2.88096 2.92998 3.02014 3.03259 3.12275C3.13521 3.22536 3.27438 3.28301 3.4195 3.28301C3.56462 3.28301 3.70379 3.22536 3.80641 3.12275C3.90902 3.02014 3.96667 2.88096 3.96667 2.73584V2.18751H6.426V2.73468C6.426 2.87979 6.48365 3.01897 6.58626 3.12158C6.68888 3.2242 6.82805 3.28184 6.97317 3.28184C7.11828 3.28184 7.25746 3.2242 7.36007 3.12158C7.46269 3.01897 7.52033 2.87979 7.52033 2.73468V2.18751H10.0077V2.73468C10.0077 2.87979 10.0653 3.01897 10.1679 3.12158C10.2705 3.2242 10.4097 3.28184 10.5548 3.28184C10.7 3.28184 10.8391 3.2242 10.9417 3.12158C11.0444 3.01897 11.102 2.87979 11.102 2.73468V2.18751H11.8125C11.9563 2.18736 12.0986 2.21556 12.2315 2.2705C12.3643 2.32544 12.485 2.40604 12.5867 2.50769C12.6883 2.60934 12.7689 2.73004 12.8238 2.86288C12.8788 2.99572 12.907 3.13809 12.9068 3.28184V9.95285C12.9068 10.098 12.9645 10.2371 13.0671 10.3398C13.1697 10.4424 13.3089 10.5 13.454 10.5C13.5991 10.5 13.7383 10.4424 13.8409 10.3398C13.9435 10.2371 14.0012 10.098 14.0012 9.95285V3.28184C14.0005 2.70167 13.7697 2.14545 13.3594 1.73532C12.949 1.32518 12.3927 1.09465 11.8125 1.09434Z" fill="#C0C3D1"/>
<path d="M8.16664 6.30702C8.47656 6.30702 8.7278 6.05578 8.7278 5.74586C8.7278 5.43593 8.47656 5.18469 8.16664 5.18469C7.85671 5.18469 7.60547 5.43593 7.60547 5.74586C7.60547 6.05578 7.85671 6.30702 8.16664 6.30702Z" fill="#C0C3D1"/>
<path d="M5.78997 8.64159C6.07606 8.64159 6.30797 8.40967 6.30797 8.12359C6.30797 7.83751 6.07606 7.60559 5.78997 7.60559C5.50389 7.60559 5.27197 7.83751 5.27197 8.12359C5.27197 8.40967 5.50389 8.64159 5.78997 8.64159Z" fill="#C0C3D1"/>
<path d="M3.41224 6.30702C3.72216 6.30702 3.97341 6.05578 3.97341 5.74586C3.97341 5.43593 3.72216 5.18469 3.41224 5.18469C3.10232 5.18469 2.85107 5.43593 2.85107 5.74586C2.85107 6.05578 3.10232 6.30702 3.41224 6.30702Z" fill="#C0C3D1"/>
<path d="M3.41224 8.64159C3.72216 8.64159 3.97341 8.40967 3.97341 8.12359C3.97341 7.83751 3.72216 7.60559 3.41224 7.60559C3.10232 7.60559 2.85107 7.83751 2.85107 8.12359C2.85107 8.40967 3.10232 8.64159 3.41224 8.64159Z" fill="#C0C3D1"/>
<path d="M3.41224 11.0612C3.72216 11.0612 3.97341 10.8099 3.97341 10.5C3.97341 10.1901 3.72216 9.93884 3.41224 9.93884C3.10232 9.93884 2.85107 10.1901 2.85107 10.5C2.85107 10.8099 3.10232 11.0612 3.41224 11.0612Z" fill="#C0C3D1"/>
<path d="M5.78997 11.0612C6.07606 11.0612 6.30797 10.8099 6.30797 10.5C6.30797 10.1901 6.07606 9.93884 5.78997 9.93884C5.50389 9.93884 5.27197 10.1901 5.27197 10.5C5.27197 10.8099 5.50389 11.0612 5.78997 11.0612Z" fill="#C0C3D1"/>
<path d="M8.16664 8.64159C8.47656 8.64159 8.7278 8.40967 8.7278 8.12359C8.7278 7.83751 8.47656 7.60559 8.16664 7.60559C7.85671 7.60559 7.60547 7.83751 7.60547 8.12359C7.60547 8.40967 7.85671 8.64159 8.16664 8.64159Z" fill="#C0C3D1"/>
<path d="M8.16664 11.0612C8.47656 11.0612 8.7278 10.8099 8.7278 10.5C8.7278 10.1901 8.47656 9.93884 8.16664 9.93884C7.85671 9.93884 7.60547 10.1901 7.60547 10.5C7.60547 10.8099 7.85671 11.0612 8.16664 11.0612Z" fill="#C0C3D1"/>
<path d="M10.5434 8.64159C10.8295 8.64159 11.0614 8.40967 11.0614 8.12359C11.0614 7.83751 10.8295 7.60559 10.5434 7.60559C10.2573 7.60559 10.0254 7.83751 10.0254 8.12359C10.0254 8.40967 10.2573 8.64159 10.5434 8.64159Z" fill="#C0C3D1"/>
<path d="M10.5434 11.0612C10.8295 11.0612 11.0614 10.8099 11.0614 10.5C11.0614 10.1901 10.8295 9.93884 10.5434 9.93884C10.2573 9.93884 10.0254 10.1901 10.0254 10.5C10.0254 10.8099 10.2573 11.0612 10.5434 11.0612Z" fill="#C0C3D1"/>
<path d="M5.78997 6.30702C6.07606 6.30702 6.30797 6.05578 6.30797 5.74586C6.30797 5.43593 6.07606 5.18469 5.78997 5.18469C5.50389 5.18469 5.27197 5.43593 5.27197 5.74586C5.27197 6.05578 5.50389 6.30702 5.78997 6.30702Z" fill="#C0C3D1"/>
<path d="M12.9069 3.28064V11.8125C12.9071 11.9561 12.879 12.0984 12.8241 12.2312C12.7692 12.3639 12.6887 12.4846 12.5872 12.5862C12.4857 12.6878 12.3651 12.7685 12.2324 12.8235C12.0997 12.8785 11.9574 12.9068 11.8138 12.9068H5.71562C5.5705 12.9068 5.43132 12.9645 5.32871 13.0671C5.2261 13.1697 5.16846 13.3089 5.16846 13.454C5.16846 13.5991 5.2261 13.7383 5.32871 13.8409C5.43132 13.9435 5.5705 14.0011 5.71562 14.0011H11.8185C12.3983 14.0002 12.9542 13.7694 13.3642 13.3594C13.7743 12.9494 14.005 12.3935 14.006 11.8136V3.28064" fill="#C0C3D1"/>
</svg>
