<svg width="18" height="18" viewBox="0 0 18 18" fill="none" xmlns="http://www.w3.org/2000/svg">
<g clip-path="url(#clip0_0_3795)">
<path d="M17.7221 1.78802C17.5022 1.51913 17.1729 1.37109 16.7947 1.37109C16.5891 1.37109 16.3713 1.41435 16.1475 1.49991L0.910795 7.31621C0.102201 7.62479 -0.00670087 8.08786 0.000302909 8.33643C0.00730668 8.58499 0.142301 9.0412 0.9671 9.30364C0.972044 9.30515 0.976988 9.30666 0.981931 9.30803L4.14242 10.2125L5.85162 15.1C6.08467 15.7663 6.60776 16.1803 7.21695 16.1803C7.60106 16.1803 7.97885 16.0193 8.30954 15.715L10.2644 13.915L13.0999 16.1981C13.1001 16.1984 13.1005 16.1985 13.1008 16.1988L13.1277 16.2205C13.1302 16.2224 13.1328 16.2245 13.1353 16.2264C13.4505 16.4708 13.7945 16.5999 14.1305 16.6001H14.1306C14.7872 16.6001 15.31 16.1141 15.4623 15.362L17.9588 3.03484C18.0591 2.54004 17.975 2.09729 17.7221 1.78802ZM5.19972 10.0407L11.2973 6.92564L7.50053 10.96C7.43832 11.026 7.39424 11.1069 7.37254 11.1949L6.64044 14.1604L5.19972 10.0407ZM7.59502 14.9391C7.56975 14.9623 7.54434 14.983 7.51893 15.0021L8.19816 12.2511L9.43371 13.2461L7.59502 14.9391ZM16.9252 2.82541L14.4286 15.1528C14.4046 15.2707 14.3278 15.5452 14.1305 15.5452C14.033 15.5452 13.9105 15.4921 13.7851 15.3956L10.5722 12.8085C10.5718 12.8081 10.5712 12.8077 10.5707 12.8075L8.6589 11.268L14.1495 5.43384C14.3252 5.24707 14.3412 4.96101 14.1872 4.75584C14.0331 4.55067 13.754 4.48613 13.5256 4.60286L4.49508 9.21629L1.29161 8.29976L16.5236 2.48524C16.6523 2.43608 16.7421 2.42578 16.7947 2.42578C16.827 2.42578 16.8844 2.42963 16.9057 2.45586C16.9337 2.49005 16.9694 2.60664 16.9252 2.82541Z" fill="#1D37B5"/>
</g>
<defs>
<clipPath id="clip0_0_3795">
<rect width="18" height="18" fill="white"/>
</clipPath>
</defs>
</svg>
