<svg width="16" height="11" viewBox="0 0 16 11" fill="none" xmlns="http://www.w3.org/2000/svg">
<path d="M15.8983 4.79667C15.7554 4.60077 12.3497 0 7.99993 0C3.6502 0 0.244313 4.60077 0.101532 4.79648C-0.0338438 4.98233 -0.0338438 5.2344 0.101532 5.42025C0.244313 5.61615 3.6502 10.2169 7.99993 10.2169C12.3497 10.2169 15.7554 5.61611 15.8983 5.4204C16.0339 5.23459 16.0339 4.98233 15.8983 4.79667ZM7.99993 9.16C4.79589 9.16 2.02085 6.10638 1.19938 5.1081C2.01979 4.10895 4.78901 1.05692 7.99993 1.05692C11.2038 1.05692 13.9787 4.11001 14.8005 5.10882C13.9801 6.10794 11.2108 9.16 7.99993 9.16Z" fill="#C0C3D1"/>
<path d="M7.9998 1.93787C6.25474 1.93787 4.83496 3.36031 4.83496 5.10864C4.83496 6.85698 6.25474 8.27942 7.9998 8.27942C9.74486 8.27942 11.1646 6.85698 11.1646 5.10864C11.1646 3.36031 9.74486 1.93787 7.9998 1.93787ZM7.9998 7.22247C6.83636 7.22247 5.88993 6.27423 5.88993 5.10864C5.88993 3.94306 6.8364 2.99481 7.9998 2.99481C9.16321 2.99481 10.1097 3.94306 10.1097 5.10864C10.1097 6.27423 9.16324 7.22247 7.9998 7.22247Z" fill="#C0C3D1"/>
</svg>
